<svg width="75" height="75" viewBox="0 0 75 75" fill="none" xmlns="http://www.w3.org/2000/svg">
<path d="M34.4004 6.69922V12.8984" stroke="#EC008C" stroke-width="2.47967" stroke-linecap="round" stroke-linejoin="round"/>
<path d="M15.803 6.69922V12.8984" stroke="#EC008C" stroke-width="2.47967" stroke-linecap="round" stroke-linejoin="round"/>
<path d="M15.8029 9.79883H12.7033C11.0592 9.79883 9.48242 10.452 8.31985 11.6145C7.15728 12.7771 6.50415 14.3539 6.50415 15.998V28.3964C6.50415 33.3288 8.46353 38.0591 11.9512 41.5468C15.439 45.0346 20.1693 46.9939 25.1017 46.9939C30.0341 46.9939 34.7645 45.0346 38.2522 41.5468C41.7399 38.0591 43.6993 33.3288 43.6993 28.3964V15.998C43.6993 14.3539 43.0461 12.7771 41.8836 11.6145C40.721 10.452 39.1442 9.79883 37.5001 9.79883H34.4005" stroke="#EC008C" stroke-width="2.47967" stroke-linecap="round" stroke-linejoin="round"/>
<path d="M25.1016 46.994C25.1016 51.9264 27.0609 56.6567 30.5487 60.1444C34.0364 63.6322 38.7667 65.5915 43.6991 65.5915C48.6315 65.5915 53.3619 63.6322 56.8496 60.1444C60.3373 56.6567 62.2967 51.9264 62.2967 46.994V37.6952" stroke="#EC008C" stroke-width="2.47967" stroke-linecap="round" stroke-linejoin="round"/>
<path d="M62.2968 37.6951C65.7206 37.6951 68.496 34.9197 68.496 31.4959C68.496 28.0722 65.7206 25.2968 62.2968 25.2968C58.8731 25.2968 56.0977 28.0722 56.0977 31.4959C56.0977 34.9197 58.8731 37.6951 62.2968 37.6951Z" stroke="#EC008C" stroke-width="2.47967" stroke-linecap="round" stroke-linejoin="round"/>
</svg>
