<svg width="75" height="75" viewBox="0 0 75 75" fill="none" xmlns="http://www.w3.org/2000/svg">
<path d="M59.1972 43.3942C63.8156 38.8688 68.496 33.4445 68.496 26.3465C68.496 21.8251 66.6999 17.489 63.5028 14.2919C60.3058 11.0948 55.9696 9.29871 51.4483 9.29871C45.993 9.29871 42.1495 10.8485 37.5001 15.4979C32.8507 10.8485 29.0072 9.29871 23.5519 9.29871C19.0306 9.29871 14.6944 11.0948 11.4973 14.2919C8.30025 17.489 6.50415 21.8251 6.50415 26.3465C6.50415 33.4755 11.1535 38.8998 15.8029 43.3942L37.5001 65.0914L59.1972 43.3942Z" stroke="#EC008C" stroke-width="2.47967" stroke-linecap="round" stroke-linejoin="round"/>
<path d="M10.2856 37.195H29.7511L31.3009 34.0954L37.5001 48.0436L43.6993 26.3464L48.3487 37.195H64.6835" stroke="#EC008C" stroke-width="2.47967" stroke-linecap="round" stroke-linejoin="round"/>
</svg>
