<svg width="75" height="75" viewBox="0 0 75 75" fill="none" xmlns="http://www.w3.org/2000/svg">
<path d="M56.0976 34.4857H43.6992C42.8771 34.4857 42.0887 34.8123 41.5075 35.3936C40.9262 35.9749 40.5996 36.7632 40.5996 37.5853V53.0833C40.5996 53.9053 40.9262 54.6937 41.5075 55.275C42.0887 55.8563 42.8771 56.1829 43.6992 56.1829H56.0976" stroke="#EC008C" stroke-width="2.47967" stroke-linecap="round" stroke-linejoin="round"/>
<path d="M18.9026 22.0874V62.3821C18.9026 64.0262 19.5557 65.603 20.7183 66.7656C21.8809 67.9282 23.4576 68.5813 25.1018 68.5813H49.8985C51.5426 68.5813 53.1194 67.9282 54.282 66.7656C55.4446 65.603 56.0977 64.0262 56.0977 62.3821V22.0874" stroke="#EC008C" stroke-width="2.47967" stroke-linecap="round" stroke-linejoin="round"/>
<path d="M59.1973 6.58948H15.803C14.0911 6.58948 12.7034 7.97721 12.7034 9.68907V18.9879C12.7034 20.6997 14.0911 22.0874 15.803 22.0874H59.1973C60.9091 22.0874 62.2969 20.6997 62.2969 18.9879V9.68907C62.2969 7.97721 60.9091 6.58948 59.1973 6.58948Z" stroke="#EC008C" stroke-width="2.47967" stroke-linecap="round" stroke-linejoin="round"/>
</svg>
