<svg width="75" height="75" viewBox="0 0 75 75" fill="none" xmlns="http://www.w3.org/2000/svg">
<path d="M18.9026 56.183H43.6993" stroke="#EC008C" stroke-width="2.47967" stroke-linecap="round" stroke-linejoin="round"/>
<path d="M9.60376 68.5814H65.3964" stroke="#EC008C" stroke-width="2.47967" stroke-linecap="round" stroke-linejoin="round"/>
<path d="M43.6992 68.5813C49.4536 68.5813 54.9724 66.2954 59.0414 62.2264C63.1104 58.1574 65.3964 52.6386 65.3964 46.8842C65.3964 41.1297 63.1104 35.611 59.0414 31.542C54.9724 27.473 49.4536 25.187 43.6992 25.187H40.5996" stroke="#EC008C" stroke-width="2.47967" stroke-linecap="round" stroke-linejoin="round"/>
<path d="M28.2012 43.7847H34.4004" stroke="#EC008C" stroke-width="2.47967" stroke-linecap="round" stroke-linejoin="round"/>
<path d="M28.2014 37.5855C26.5573 37.5855 24.9805 36.9323 23.8179 35.7698C22.6553 34.6072 22.0022 33.0304 22.0022 31.3863V18.9879H40.5998V31.3863C40.5998 33.0304 39.9466 34.6072 38.7841 35.7698C37.6215 36.9323 36.0447 37.5855 34.4006 37.5855H28.2014Z" stroke="#EC008C" stroke-width="2.47967" stroke-linecap="round" stroke-linejoin="round"/>
<path d="M37.4999 18.9879V9.68907C37.4999 8.86701 37.1734 8.07861 36.5921 7.49733C36.0108 6.91604 35.2224 6.58948 34.4003 6.58948H28.2012C27.3791 6.58948 26.5907 6.91604 26.0094 7.49733C25.4281 8.07861 25.1016 8.86701 25.1016 9.68907V18.9879" stroke="#EC008C" stroke-width="2.47967" stroke-linecap="round" stroke-linejoin="round"/>
</svg>
