<svg width="93" height="93" viewBox="0 0 93 93" fill="none" xmlns="http://www.w3.org/2000/svg">
<path d="M42.625 54.25H50.375C52.4304 54.25 54.4017 53.4335 55.8551 51.9801C57.3085 50.5267 58.125 48.5554 58.125 46.5C58.125 44.4446 57.3085 42.4733 55.8551 41.0199C54.4017 39.5665 52.4304 38.75 50.375 38.75H38.75C36.425 38.75 34.4875 39.525 33.325 41.075L11.625 62" stroke="white" stroke-width="2" stroke-linecap="round" stroke-linejoin="round"/>
<path d="M27.125 77.5L33.325 72.075C34.4875 70.525 36.425 69.75 38.75 69.75H54.25C58.5125 69.75 62.3875 68.2 65.1 65.1L82.925 48.05C84.4203 46.6368 85.293 44.6876 85.3512 42.631C85.4093 40.5745 84.6481 38.579 83.235 37.0837C81.8219 35.5884 79.8726 34.7157 77.8161 34.6575C75.7595 34.5994 73.7641 35.3606 72.2687 36.7737L55.9937 51.8862" stroke="white" stroke-width="2" stroke-linecap="round" stroke-linejoin="round"/>
<path d="M7.75 58.125L31 81.375" stroke="white" stroke-width="2" stroke-linecap="round" stroke-linejoin="round"/>
<path d="M75.5625 32.9375C78.275 30.225 81.375 26.7375 81.375 22.475C81.6458 20.1071 81.1091 17.7171 79.8519 15.6923C78.5946 13.6676 76.6904 12.1267 74.448 11.3194C72.2055 10.5121 69.7561 10.4858 67.4968 11.2445C65.2375 12.0033 63.3006 13.5028 62 15.5C60.6167 13.6578 58.6793 12.3075 56.4721 11.6474C54.2649 10.9873 51.9043 11.0522 49.7367 11.8326C47.5691 12.6129 45.7088 14.0675 44.4288 15.983C43.1488 17.8985 42.5166 20.1738 42.625 22.475C42.625 27.125 45.725 30.225 48.4375 33.325L62 46.5L75.5625 32.9375Z" stroke="white" stroke-width="2" stroke-linecap="round" stroke-linejoin="round"/>
</svg>
