<svg width="100%" height="400" viewBox="0 0 3117 400" fill="none" xmlns="http://www.w3.org/2000/svg">
<rect y="40" width="3116" height="320" fill="#FFF4FB"/>
<path d="M0.00533767 25L74.4501 15C148.895 5 297.784 -15 445.979 -25C594.52 -35 742.021 -15 890.56 -5C1038.75 5 1187.64 15 1335.83 25C1484.37 35 1631.87 45 1780.41 35C1928.61 25 2077.5 -5 2225.69 -15C2374.23 -25 2521.73 -15 2670.27 -15C2818.47 -15 2967.35 -25 3041.8 -30L3116.24 -35L3116.23 40H3041.79C2967.34 40 2818.46 40 2670.26 40C2521.72 40 2374.22 40 2225.68 40C2077.49 40 1928.6 40 1780.41 40C1631.87 40 1484.36 40 1335.82 40C1187.63 40 1038.74 40 890.549 40C742.009 40 594.507 40 445.967 40C297.773 40 148.886 40 74.4432 40H-4.57546e-08L0.00533767 25Z" fill="#FFF4FB"/>
<path d="M3116.05 375L3041.57 385C2967.09 395 2818.12 415 2669.92 425C2521.36 435 2373.92 415 2225.43 405C2077.28 395 1928.44 385 1780.28 375C1631.79 365 1484.33 355 1335.79 365C1187.6 375 1038.67 395 890.476 405C741.935 415 594.472 405 445.95 405C297.775 405 148.887 415 74.4436 420L-2.3383e-05 425L0.441357 360L74.8741 360C149.307 360 298.172 360 446.346 360C594.865 360 742.346 360 890.865 360C1039.04 360 1187.9 360 1336.08 360C1484.6 360 1632.08 360 1780.6 360C1928.77 360 2077.64 360 2225.81 360C2374.33 360 2521.81 360 2670.33 360C2818.5 360 2967.37 360 3041.8 360L3116.23 360L3116.05 375Z" fill="#FFF4FB"/>
</svg>
