<svg width="1440" height="2310" viewBox="0 0 1440 2310" fill="none" xmlns="http://www.w3.org/2000/svg">
<rect x="-1" y="131" width="1440" height="2078" fill="#FFF4FB"/>
<path d="M-90.9961 87.2047L-50.528 70.4904C-10.0599 53.7762 70.8763 20.3478 151.435 9.59252C232.181 -1.23539 312.362 10.6826 393.107 19.9844C473.664 29.2862 554.597 36.1173 635.155 43.239C715.9 50.3607 796.081 57.9184 876.827 51.4507C957.385 45.0557 1038.32 24.708 1118.88 17.4409C1199.62 10.1739 1279.81 15.9875 1360.55 15.2608C1441.11 14.5341 1522.04 7.26706 1562.51 3.63353L1602.98 0L1602.97 147.521L1562.5 147.521C1522.03 147.521 1441.1 147.521 1360.54 147.521C1279.8 147.521 1199.62 147.521 1118.87 147.521C1038.31 147.521 957.378 147.521 876.821 147.521C796.075 147.521 715.894 147.521 635.148 147.521C554.59 147.521 473.656 147.521 393.099 147.521C312.353 147.521 232.172 147.521 151.426 147.521C70.8682 147.521 -10.0659 147.521 -50.5329 147.521H-90.9999L-90.9961 87.2047Z" fill="#FFF4FB"/>
<path d="M2168.98 2150.28L2095.24 2180.6C2021.49 2210.92 1874 2271.57 1727.26 2290.92C1580.18 2310.41 1434.2 2288.48 1287.18 2271.3C1140.5 2254.13 993.128 2241.46 846.444 2228.26C699.417 2215.06 553.419 2201.06 406.351 2212.61C259.627 2224.02 112.175 2260.85 -34.5529 2273.85C-181.623 2286.85 -327.626 2276.03 -474.677 2277.13C-621.384 2278.22 -768.797 2291.22 -842.504 2297.72L-916.21 2304.22L-915.769 2035.56L-842.073 2035.68C-768.378 2035.8 -620.987 2036.03 -474.281 2036.26C-327.232 2036.49 -181.212 2036.72 -34.1637 2036.96C112.542 2037.19 259.933 2037.42 406.639 2037.65C553.687 2037.89 699.708 2038.12 846.756 2038.35C993.462 2038.58 1140.85 2038.81 1287.56 2039.04C1434.61 2039.28 1580.63 2039.51 1727.68 2039.74C1874.38 2039.97 2021.77 2040.2 2095.47 2040.32L2169.16 2040.44L2168.98 2150.28Z" fill="#FFF4FB"/>
</svg>
