<svg width="1440" height="2209" viewBox="0 0 1440 2209" fill="none" xmlns="http://www.w3.org/2000/svg">
<rect x="-1" y="131" width="1440" height="2078" fill="#FFF4FB"/>
<path d="M-90.9961 87.2047L-50.528 70.4904C-10.0599 53.7762 70.8763 20.3478 151.435 9.59252C232.181 -1.23539 312.362 10.6826 393.107 19.9844C473.664 29.2862 554.597 36.1173 635.155 43.239C715.9 50.3607 796.081 57.9184 876.827 51.4507C957.385 45.0557 1038.32 24.708 1118.88 17.4409C1199.62 10.1739 1279.81 15.9875 1360.55 15.2608C1441.11 14.5341 1522.04 7.26706 1562.51 3.63353L1602.98 0L1602.97 147.521L1562.5 147.521C1522.03 147.521 1441.1 147.521 1360.54 147.521C1279.8 147.521 1199.62 147.521 1118.87 147.521C1038.31 147.521 957.378 147.521 876.821 147.521C796.075 147.521 715.894 147.521 635.148 147.521C554.59 147.521 473.656 147.521 393.099 147.521C312.353 147.521 232.172 147.521 151.426 147.521C70.8682 147.521 -10.0659 147.521 -50.5329 147.521H-90.9999L-90.9961 87.2047Z" fill="#FFF4FB"/>
</svg>
