<svg width="95" height="93" viewBox="0 0 95 93" fill="none" xmlns="http://www.w3.org/2000/svg">
<path d="M47.4999 85.25C69.1311 85.25 86.6666 67.901 86.6666 46.5C86.6666 25.099 69.1311 7.75 47.4999 7.75C25.8688 7.75 8.33325 25.099 8.33325 46.5C8.33325 67.901 25.8688 85.25 47.4999 85.25Z" stroke="white" stroke-width="2" stroke-linecap="round" stroke-linejoin="round"/>
<path d="M63.1666 31H39.6666C37.5891 31 35.5966 31.8165 34.1276 33.2699C32.6585 34.7233 31.8333 36.6946 31.8333 38.75C31.8333 40.8054 32.6585 42.7767 34.1276 44.2301C35.5966 45.6835 37.5891 46.5 39.6666 46.5H55.3333C57.4108 46.5 59.4032 47.3165 60.8723 48.7699C62.3413 50.2233 63.1666 52.1946 63.1666 54.25C63.1666 56.3054 62.3413 58.2767 60.8723 59.7301C59.4032 61.1835 57.4108 62 55.3333 62H31.8333" stroke="white" stroke-width="2" stroke-linecap="round" stroke-linejoin="round"/>
<path d="M47.5 69.75V23.25" stroke="white" stroke-width="2" stroke-linecap="round" stroke-linejoin="round"/>
</svg>
