<svg width="94" height="93" viewBox="0 0 94 93" fill="none" xmlns="http://www.w3.org/2000/svg">
<path d="M81.875 46.5C81.875 53.3976 79.8296 60.1403 75.9975 65.8755C72.1654 71.6107 66.7187 76.0807 60.3461 78.7203C53.9735 81.3599 46.9613 82.0505 40.1962 80.7049C33.4312 79.3592 27.217 76.0377 22.3397 71.1603C17.4623 66.283 14.1408 60.0689 12.7951 53.3038C11.4495 46.5387 12.1401 39.5265 14.7797 33.1539C17.4193 26.7813 21.8893 21.3346 27.6245 17.5025C33.3597 13.6704 40.1024 11.625 47 11.625C56.765 11.625 66.1038 15.5 73.1175 22.2425L81.875 31" stroke="white" stroke-width="2" stroke-linecap="round" stroke-linejoin="round"/>
<path d="M81.875 11.625V31H62.5" stroke="white" stroke-width="2" stroke-linecap="round" stroke-linejoin="round"/>
</svg>
