<svg width="1440" height="378" viewBox="0 0 1440 378" fill="none" xmlns="http://www.w3.org/2000/svg">
<path d="M2113.2 218.869L2039.45 249.188C1965.71 279.506 1818.21 340.144 1671.47 359.491C1524.39 378.971 1378.41 357.029 1231.39 339.85C1084.71 322.671 937.342 309.991 790.658 296.782C643.632 283.573 497.635 269.572 350.566 281.111C203.841 292.518 56.387 329.333 -90.3413 342.329C-237.412 355.323 -383.414 344.498 -530.465 345.582C-677.173 346.667 -824.587 359.661 -898.293 366.158L-972 372.655L-971.546 104L-897.85 104.12C-824.154 104.24 -676.763 104.48 -530.057 104.719C-383.009 104.959 -236.989 105.196 -89.9403 105.436C56.7656 105.675 204.157 105.915 350.862 106.154C497.911 106.393 643.931 106.631 790.98 106.871C937.685 107.11 1085.08 107.35 1231.78 107.589C1378.83 107.828 1524.85 108.066 1671.9 108.306C1818.6 108.545 1966 108.785 2039.69 108.905L2113.39 109.025L2113.2 218.869Z" fill="#FFF4FB"/>
<path d="M741.519 195.551C801.324 195.551 849.806 147.035 849.806 87.1874C849.806 27.34 801.324 -21.1759 741.519 -21.1759C681.714 -21.1759 633.232 27.34 633.232 87.1874C633.232 147.035 681.714 195.551 741.519 195.551Z" fill="#FFE6F5"/>
<path d="M1294.25 318.991C1346.78 318.991 1389.36 276.381 1389.36 223.82C1389.36 171.258 1346.78 128.648 1294.25 128.648C1241.73 128.648 1199.15 171.258 1199.15 223.82C1199.15 276.381 1241.73 318.991 1294.25 318.991Z" fill="#FFE6F5"/>
<path d="M965.626 72.1108C1019.19 72.1108 1062.61 28.6574 1062.61 -24.9451C1062.61 -78.5475 1019.19 -122.001 965.626 -122.001C912.061 -122.001 868.639 -78.5475 868.639 -24.9451C868.639 28.6574 912.061 72.1108 965.626 72.1108Z" fill="#FFE6F5"/>
<path d="M542.837 19.3426C595.361 19.3426 637.941 -23.267 637.941 -75.8287C637.941 -128.39 595.361 -171 542.837 -171C490.312 -171 447.732 -128.39 447.732 -75.8287C447.732 -23.267 490.312 19.3426 542.837 19.3426Z" fill="#FFE6F5"/>
</svg>
